<svg id="Componente_1_1" data-name="Componente 1 – 1" xmlns="http://www.w3.org/2000/svg" width="242" height="300" viewBox="0 0 242 300">
  <rect id="Rectángulo_1" data-name="Rectángulo 1" width="242" height="300" fill="#fff"/>
  <g id="mavi-logo" transform="translate(34.066 111.363)" style="mix-blend-mode: luminosity;isolation: isolate">
    <path id="Trazado_1" data-name="Trazado 1" d="M173.869,41.94H0v1.779H173.869Z" transform="translate(0 20.385)" fill="#c10d19"/>
    <path id="Trazado_2" data-name="Trazado 2" d="M11.9,1.07A1.064,1.064,0,0,1,12.954,0h17.06A1.239,1.239,0,0,1,31.2,1.058l4.851,38.758c.072.583.2.587.291,0L42.216,1.054A1.276,1.276,0,0,1,43.428,0h16.6a1.065,1.065,0,0,1,1.053,1.07V55.91a1.061,1.061,0,0,1-1.053,1.066H50.7a1.064,1.064,0,0,1-1.053-1.066V9.433c0-.587-.079-.594-.177-.015L41.627,55.925A1.3,1.3,0,0,1,40.4,56.976H31a1.283,1.283,0,0,1-1.216-1.055l-7.211-46.5c-.091-.579-.162-.575-.162.012V55.906a1.061,1.061,0,0,1-1.053,1.066h-8.4A1.064,1.064,0,0,1,11.9,55.906V1.07Z" transform="translate(5.783)" fill="#525556"/>
    <path id="Trazado_3" data-name="Trazado 3" d="M65.148,33.8a.965.965,0,0,0,.967-1.066L64.284,9.778c-.045-.587-.147-.587-.219,0L61.139,32.746a.911.911,0,0,0,.917,1.058ZM57.892,55.921a1.268,1.268,0,0,1-1.208,1.055h-8.94a.866.866,0,0,1-.876-1.051L56.02,1.054A1.3,1.3,0,0,1,57.247,0H73.11A1.242,1.242,0,0,1,74.3,1.058l7,54.859a.909.909,0,0,1-.917,1.058H69.444a1.207,1.207,0,0,1-1.163-1.062L67.043,44.05a1.207,1.207,0,0,0-1.163-1.062H60.863a1.271,1.271,0,0,0-1.208,1.058Z" transform="translate(22.773)" fill="#525556"/>
    <path id="Trazado_4" data-name="Trazado 4" d="M71.271,1.054A.886.886,0,0,1,72.162,0H84.1a1.177,1.177,0,0,1,1.14,1.066l3.481,41.8c.049.583.147.587.219,0L94.066,1.058A1.232,1.232,0,0,1,95.247,0h9.94a.873.873,0,0,1,.88,1.054L97.1,55.921a1.294,1.294,0,0,1-1.223,1.055H80.822a1.276,1.276,0,0,1-1.212-1.055Z" transform="translate(34.636)" fill="#525556"/>
    <path id="Trazado_5" data-name="Trazado 5" d="M97.374,56.976a1.064,1.064,0,0,1-1.053-1.066V1.07A1.065,1.065,0,0,1,97.374,0h10.941a1.065,1.065,0,0,1,1.054,1.07V55.91a1.062,1.062,0,0,1-1.054,1.066Z" transform="translate(46.817)" fill="#525556"/>
    <path id="Trazado_6" data-name="Trazado 6" d="M14.191,49.3a1.346,1.346,0,0,0-1.257-.847,1.475,1.475,0,0,0-1.461,1.6,1.5,1.5,0,0,0,1.446,1.61,1.345,1.345,0,0,0,1.261-.832h.932a2.317,2.317,0,1,1-2.186-3.152A2.266,2.266,0,0,1,15.112,49.3h-.921Z" transform="translate(5.169 23.173)" fill="#525556"/>
    <path id="Trazado_7" data-name="Trazado 7" d="M19.355,48.45a1.605,1.605,0,1,0,1.57,1.591A1.583,1.583,0,0,0,19.355,48.45Zm0,3.984a2.415,2.415,0,0,1-2.4-2.408,2.405,2.405,0,0,1,4.81.019A2.415,2.415,0,0,1,19.355,52.434Z" transform="translate(8.239 23.173)" fill="#525556"/>
    <path id="Trazado_8" data-name="Trazado 8" d="M29.581,52.319V49.8c0-.383-.049-1.354-1.053-1.354-1.068,0-1.053.97-1.061,1.35v2.523h-.834V49.808a1.574,1.574,0,0,0-.185-.932.926.926,0,0,0-.827-.426c-1.1,0-1.1,1.012-1.1,1.35v2.523h-.834V47.8h.77v.491h.019a1.45,1.45,0,0,1,1.276-.614,1.525,1.525,0,0,1,1.385.759,1.529,1.529,0,0,1,1.472-.759,1.689,1.689,0,0,1,1.567.817,2.243,2.243,0,0,1,.249,1.1v2.726Z" transform="translate(11.512 23.173)" fill="#525556"/>
    <path id="Trazado_9" data-name="Trazado 9" d="M35.421,49.773a1.443,1.443,0,0,0-2.877,0Zm-2.877.652a1.517,1.517,0,0,0,1.461,1.235,1.429,1.429,0,0,0,1.272-.759h.834a2.271,2.271,0,0,1-2.141,1.538A2.347,2.347,0,0,1,31.7,50.053,2.278,2.278,0,1,1,36.255,50c0,.146-.015.376-.023.433H32.544Z" transform="translate(15.409 23.173)" fill="#525556"/>
    <path id="Trazado_10" data-name="Trazado 10" d="M38.254,52.32V47.8h.778V48.2h.015a1.36,1.36,0,0,1,1.133-.529v.874a1.593,1.593,0,0,0-.6.161,1.2,1.2,0,0,0-.491,1.135v2.473h-.831Z" transform="translate(18.594 23.172)" fill="#525556"/>
    <path id="Trazado_11" data-name="Trazado 11" d="M46.266,49.3a1.34,1.34,0,0,0-1.253-.847,1.475,1.475,0,0,0-1.465,1.6,1.5,1.5,0,0,0,1.446,1.61,1.345,1.345,0,0,0,1.261-.832h.932a2.39,2.39,0,1,1,0-1.526h-.921Z" transform="translate(20.759 23.173)" fill="#525556"/>
    <path id="Trazado_12" data-name="Trazado 12" d="M50.017,52.777h-.834V48.252h.834Zm0-5.046h-.834v-1h.834Z" transform="translate(23.906 22.715)" fill="#525556"/>
    <path id="Trazado_13" data-name="Trazado 13" d="M55.64,48.45a1.605,1.605,0,1,0,1.567,1.591A1.583,1.583,0,0,0,55.64,48.45Zm0,3.984a2.415,2.415,0,0,1-2.4-2.408,2.405,2.405,0,0,1,4.81.019A2.413,2.413,0,0,1,55.64,52.434Z" transform="translate(25.875 23.173)" fill="#525556"/>
    <path id="Trazado_14" data-name="Trazado 14" d="M67.289,49.144a1.228,1.228,0,1,1-1.216-1.265A1.248,1.248,0,0,1,67.289,49.144Z" transform="translate(31.513 23.272)" fill="#525556"/>
    <path id="Trazado_15" data-name="Trazado 15" d="M77.234,48.451a1.606,1.606,0,0,0-.008,3.209,1.6,1.6,0,0,0,1.559-1.591A1.538,1.538,0,0,0,77.234,48.451Zm2.386,3.259A2.209,2.209,0,0,1,77.207,54.1a2.306,2.306,0,0,1-2.193-1.43h.933a1.459,1.459,0,0,0,1.272.652,1.422,1.422,0,0,0,1.567-1.6H78.77a1.8,1.8,0,0,1-1.536.709,2.424,2.424,0,0,1-2.382-2.393,2.38,2.38,0,0,1,2.4-2.37,2.111,2.111,0,0,1,1.537.644V47.8h.834Z" transform="translate(36.382 23.172)" fill="#525556"/>
    <path id="Trazado_16" data-name="Trazado 16" d="M82.535,46.734H81.7v6.043h.834Z" transform="translate(39.711 22.715)" fill="#525556"/>
    <path id="Trazado_17" data-name="Trazado 17" d="M88.16,48.45a1.605,1.605,0,1,0,1.567,1.591A1.587,1.587,0,0,0,88.16,48.45Zm0,3.984a2.415,2.415,0,0,1-2.4-2.408,2.405,2.405,0,0,1,4.81.019A2.415,2.415,0,0,1,88.16,52.434Z" transform="translate(41.682 23.173)" fill="#525556"/>
    <path id="Trazado_18" data-name="Trazado 18" d="M94.818,52.117a1.607,1.607,0,0,0,0-3.209,1.607,1.607,0,0,0,0,3.209Zm-2.333.66V46.734h.834v2.147h.015a1.811,1.811,0,0,1,1.529-.751,2.355,2.355,0,0,1,2.307,2.385,2.315,2.315,0,0,1-2.291,2.377,1.93,1.93,0,0,1-1.552-.767h-.015v.652Z" transform="translate(44.953 22.715)" fill="#525556"/>
    <path id="Trazado_19" data-name="Trazado 19" d="M101.335,48.451a1.606,1.606,0,1,0,1.541,1.618A1.529,1.529,0,0,0,101.335,48.451Zm1.529,3.869v-.7h-.015a1.7,1.7,0,0,1-1.51.817,2.381,2.381,0,0,1,0-4.762,1.751,1.751,0,0,1,1.51.759h.015V47.8h.835V52.32Z" transform="translate(48.108 23.172)" fill="#525556"/>
    <path id="Trazado_20" data-name="Trazado 20" d="M106.64,46.734H105.8v6.043h.838Z" transform="translate(51.426 22.715)" fill="#525556"/>
  </g>
</svg>
